<svg width="213" height="454" viewBox="0 0 213 454" fill="none" xmlns="http://www.w3.org/2000/svg">
<path d="M102.792 291.852C135.473 291.852 161.966 248.271 161.966 194.511C161.966 140.751 135.473 97.1704 102.792 97.1704C70.1112 97.1704 43.6182 140.751 43.6182 194.511C43.6182 248.271 70.1112 291.852 102.792 291.852Z" fill="#FFC1C1"/>
<path d="M183.246 319.349H26.022V313.503H183.246C183.331 313.503 183.414 313.531 183.492 313.584C183.57 313.637 183.641 313.715 183.701 313.813C183.76 313.911 183.808 314.028 183.84 314.156C183.872 314.284 183.889 314.421 183.889 314.56V318.292C183.889 318.572 183.821 318.841 183.701 319.039C183.58 319.237 183.417 319.349 183.246 319.349V319.349Z" fill="#425AC2"/>
<path d="M27.3074 314.582H26.0093V453.12H27.3074V314.582Z" fill="#425AC2"/>
<path d="M183.247 314.582H183.234C182.879 314.582 182.591 315.055 182.591 315.639V452.063C182.591 452.647 182.879 453.12 183.234 453.12H183.247C183.602 453.12 183.889 452.647 183.889 452.063V315.639C183.889 315.055 183.602 314.582 183.247 314.582Z" fill="#425AC2"/>
<path d="M92.0406 87.8076C91.6228 88.4925 91.0571 88.8771 90.4672 88.8771C89.8774 88.8771 89.3116 88.4925 88.8938 87.8076V87.8076C88.4774 87.1203 88.2437 86.1895 88.2437 85.2193C88.2437 84.249 88.4774 83.3183 88.8938 82.631L92.6438 76.4838C92.8478 76.1401 93.0915 75.867 93.3606 75.6805C93.6296 75.494 93.9187 75.3979 94.2107 75.3979C94.5026 75.3979 94.7917 75.494 95.0608 75.6805C95.3299 75.867 95.5736 76.1401 95.7775 76.4838C95.9865 76.8194 96.1525 77.2202 96.2659 77.6629C96.3792 78.1055 96.4376 78.581 96.4376 79.0613C96.4376 79.5417 96.3792 80.0171 96.2659 80.4598C96.1525 80.9024 95.9865 81.3033 95.7775 81.6389L92.0406 87.8076Z" fill="#8EA8DD"/>
<path d="M118.566 87.8078C118.984 88.4927 119.55 88.8773 120.14 88.8773C120.73 88.8773 121.296 88.4927 121.713 87.8078V87.8078C122.13 87.1205 122.363 86.1898 122.363 85.2195C122.363 84.2492 122.13 83.3185 121.713 82.6313L117.963 76.4841C117.758 76.1397 117.513 75.8662 117.243 75.6795C116.973 75.4927 116.683 75.3965 116.39 75.3965C116.097 75.3965 115.807 75.4927 115.537 75.6795C115.266 75.8662 115.022 76.1397 114.817 76.4841V76.4841C114.401 77.1677 114.167 78.0948 114.167 79.0616C114.167 80.0283 114.401 80.9555 114.817 81.6391L118.566 87.8078Z" fill="#8EA8DD"/>
<path d="M94.5971 18.4413C93.9519 16.8667 93.6051 15.0127 93.6006 13.1138C93.6006 5.99599 98.6749 0.172363 104.903 0.172363C111.131 0.172363 116.205 5.95285 116.205 13.1138C116.2 14.8638 115.905 16.5785 115.353 18.0746L113.688 16.457C114.067 15.4522 114.271 14.2959 114.278 13.1138C114.278 7.82936 109.99 3.38616 104.903 3.38616C99.8156 3.38616 95.528 7.82936 95.528 13.1138C95.5366 14.4014 95.7786 15.6556 96.223 16.7158L94.5971 18.4413Z" fill="#A4B8EA"/>
<path d="M116.106 15.92L112.269 25.7598L119.961 33.8771L123.798 24.0373L116.106 15.92Z" fill="#FFC1C1"/>
<path d="M112.836 18.1829C113.009 17.5826 113.211 17.0057 113.439 16.4574C114.513 14.0634 116.116 12.458 117.902 11.9858C119.688 11.5137 121.515 12.2125 122.992 13.9322C124.468 15.6519 125.475 18.2554 125.798 21.1835C126.12 24.1116 125.731 27.1308 124.715 29.5929C124.482 30.1349 124.219 30.6404 123.929 31.1027L112.836 18.1829Z" fill="#FE958E"/>
<path d="M93.7792 16.4886L86.0869 24.606L89.9241 34.4458L97.6164 26.3284L93.7792 16.4886Z" fill="#FFC1C1"/>
<path d="M119.973 78.8979C128.176 65.4039 128.176 43.5258 119.973 30.0318C111.77 16.5379 98.4705 16.5378 90.2675 30.0318C82.0644 43.5258 82.0644 65.4039 90.2675 78.8979C98.4705 92.3919 111.77 92.3919 119.973 78.8979Z" fill="#FE958E"/>
<path d="M109.162 82.401C118.547 78.7346 124.348 63.2477 122.119 47.81C119.89 32.3723 110.476 22.8298 101.091 26.4962C91.7066 30.1626 85.9057 45.6495 88.1345 61.0871C90.3633 76.5248 99.7779 86.0674 109.162 82.401Z" fill="#FEE2E3"/>
<path d="M105.782 29.4419C105.784 29.656 105.748 29.8666 105.678 30.0468C105.607 30.227 105.506 30.3685 105.386 30.4535C105.267 30.5384 105.135 30.5629 105.006 30.5237C104.878 30.4846 104.76 30.3836 104.667 30.2337C104.574 30.0838 104.511 29.8917 104.484 29.6819C104.458 29.4721 104.47 29.2542 104.519 29.0559C104.569 28.8576 104.653 28.6878 104.761 28.5683C104.869 28.4489 104.996 28.385 105.126 28.385C105.212 28.3821 105.297 28.4073 105.376 28.4592C105.456 28.511 105.528 28.5884 105.589 28.6868C105.65 28.7852 105.699 28.9027 105.732 29.0324C105.765 29.162 105.782 29.3013 105.782 29.4419V29.4419Z" fill="#425AC2"/>
<path d="M98.0853 32.267C98.1296 32.3882 98.1587 32.5228 98.1709 32.6629C98.183 32.803 98.1779 32.9457 98.1559 33.0824C98.1339 33.2192 98.0954 33.3474 98.0427 33.4592C97.9901 33.5711 97.9243 33.6644 97.8493 33.7336C97.7007 33.8684 97.5262 33.9033 97.3624 33.8309C97.1986 33.7585 97.0582 33.5845 96.9708 33.3454C96.8888 33.1011 96.8676 32.8141 96.9116 32.5446C96.9556 32.2751 97.0614 32.0441 97.2068 31.9003C97.3529 31.758 97.5274 31.7167 97.692 31.7854C97.8566 31.8541 97.998 32.0272 98.0853 32.267Z" fill="#425AC2"/>
<path d="M92.2896 41.0237C92.3642 41.0908 92.4298 41.1821 92.4823 41.292C92.5348 41.402 92.5733 41.5283 92.5953 41.6633C92.6174 41.7984 92.6226 41.9394 92.6106 42.0778C92.5986 42.2163 92.5698 42.3493 92.5257 42.4688C92.4382 42.7079 92.2978 42.882 92.134 42.9544C91.9702 43.0268 91.7957 42.9919 91.6472 42.8571C91.574 42.7877 91.5098 42.6953 91.4584 42.5851C91.4069 42.4749 91.3691 42.3491 91.3472 42.2149C91.3253 42.0807 91.3197 41.9408 91.3306 41.803C91.3416 41.6652 91.369 41.5324 91.4112 41.412C91.4533 41.2916 91.5095 41.1861 91.5765 41.1014C91.6435 41.0167 91.7199 40.9546 91.8015 40.9186C91.8831 40.8825 91.9682 40.8732 92.0519 40.8913C92.1357 40.9093 92.2164 40.9543 92.2896 41.0237V41.0237Z" fill="#425AC2"/>
<path d="M89.9301 53.3833C90.0571 53.3833 90.1813 53.4453 90.287 53.5614C90.3926 53.6776 90.475 53.8426 90.5236 54.0357C90.5723 54.2289 90.585 54.4414 90.5602 54.6464C90.5354 54.8514 90.4742 55.0397 90.3843 55.1875C90.2945 55.3353 90.18 55.436 90.0554 55.4768C89.9308 55.5176 89.8016 55.4966 89.6842 55.4166C89.5668 55.3366 89.4665 55.2012 89.3959 55.0274C89.3253 54.8536 89.2876 54.6492 89.2876 54.4402C89.2876 54.1599 89.3553 53.8911 89.4757 53.6929C89.5962 53.4947 89.7597 53.3833 89.9301 53.3833Z" fill="#425AC2"/>
<path d="M91.6476 66.0224C91.7961 65.8876 91.9707 65.8527 92.1345 65.9251C92.2983 65.9975 92.4387 66.1716 92.5261 66.4107C92.5894 66.5918 92.6187 66.7997 92.6102 67.0082C92.6017 67.2166 92.5558 67.4163 92.4784 67.5819C92.4009 67.7475 92.2954 67.8716 92.1751 67.9386C92.0548 68.0055 91.9251 68.0123 91.8024 67.9581C91.6798 67.9039 91.5696 67.7911 91.4859 67.634C91.4022 67.4769 91.3487 67.2825 91.3322 67.0753C91.3156 66.8682 91.3367 66.6576 91.3929 66.4702C91.449 66.2828 91.5377 66.127 91.6476 66.0224V66.0224Z" fill="#425AC2"/>
<path d="M96.9708 75.5561C97.0582 75.317 97.1986 75.143 97.3624 75.0706C97.5262 74.9982 97.7007 75.0331 97.8493 75.1679C97.9988 75.3081 98.1084 75.5401 98.1539 75.8132C98.1993 76.0862 98.177 76.3778 98.0918 76.6238C98.0066 76.8698 97.8655 77.05 97.6995 77.1248C97.5336 77.1997 97.3563 77.163 97.2068 77.0228C97.0605 76.8749 96.9544 76.6401 96.9105 76.3671C96.8665 76.094 96.8881 75.8037 96.9708 75.5561Z" fill="#425AC2"/>
<path d="M104.484 79.4387C104.481 79.2236 104.517 79.0122 104.589 78.8316C104.66 78.6509 104.762 78.5094 104.882 78.4251C105.002 78.3408 105.135 78.3176 105.264 78.3586C105.392 78.3995 105.51 78.5026 105.603 78.6547C105.695 78.8068 105.758 79.001 105.783 79.2122C105.807 79.4233 105.793 79.6419 105.742 79.8398C105.691 80.0378 105.605 80.206 105.495 80.3228C105.385 80.4396 105.257 80.4998 105.126 80.4955C104.956 80.4955 104.792 80.3842 104.672 80.186C104.551 79.9878 104.484 79.719 104.484 79.4387Z" fill="#425AC2"/>
<path d="M112.18 76.6346C112.136 76.5134 112.106 76.3787 112.094 76.2386C112.082 76.0985 112.087 75.9559 112.109 75.8191C112.131 75.6823 112.17 75.5542 112.222 75.4423C112.275 75.3305 112.341 75.2372 112.416 75.1679C112.564 75.0331 112.739 74.9982 112.903 75.0706C113.067 75.143 113.207 75.317 113.294 75.5561C113.377 75.8037 113.399 76.094 113.355 76.3671C113.311 76.6401 113.205 76.8749 113.058 77.0228C112.91 77.1576 112.735 77.1925 112.572 77.1201C112.408 77.0477 112.267 76.8737 112.18 76.6346V76.6346Z" fill="#425AC2"/>
<path d="M117.976 67.8566C117.902 67.7895 117.836 67.6982 117.784 67.5883C117.731 67.4784 117.693 67.3521 117.671 67.217C117.649 67.082 117.643 66.941 117.655 66.8025C117.667 66.6641 117.696 66.5311 117.74 66.4115C117.783 66.2911 117.839 66.1856 117.906 66.1009C117.973 66.0162 118.049 65.9541 118.131 65.9181C118.212 65.882 118.297 65.8727 118.381 65.8908C118.465 65.9088 118.546 65.9538 118.619 66.0232C118.692 66.0926 118.756 66.1851 118.808 66.2952C118.859 66.4054 118.897 66.5312 118.919 66.6654C118.941 66.7996 118.946 66.9396 118.935 67.0774C118.924 67.2151 118.897 67.348 118.855 67.4684C118.814 67.5911 118.759 67.6988 118.692 67.7853C118.625 67.8717 118.548 67.935 118.466 67.9712C118.384 68.0075 118.298 68.0161 118.214 67.9964C118.13 67.9767 118.049 67.9291 117.976 67.8566V67.8566Z" fill="#425AC2"/>
<path d="M120.337 55.4971C120.692 55.4971 120.979 55.0239 120.979 54.4402C120.979 53.8565 120.692 53.3833 120.337 53.3833C119.982 53.3833 119.694 53.8565 119.694 54.4402C119.694 55.0239 119.982 55.4971 120.337 55.4971Z" fill="#425AC2"/>
<path d="M118.619 42.8571C118.47 42.9919 118.296 43.0268 118.132 42.9544C117.968 42.882 117.827 42.7079 117.74 42.4688C117.655 42.2257 117.632 41.9369 117.676 41.6659C117.72 41.3949 117.828 41.1639 117.976 41.0237C118.124 40.8836 118.299 40.8458 118.464 40.9186C118.629 40.9914 118.769 41.1689 118.855 41.412C118.897 41.5323 118.924 41.6652 118.935 41.803C118.946 41.9408 118.941 42.0808 118.919 42.2151C118.897 42.3493 118.859 42.4751 118.808 42.5853C118.756 42.6954 118.692 42.7878 118.619 42.8571Z" fill="#425AC2"/>
<path d="M113.294 33.3244C113.207 33.5635 113.067 33.7376 112.903 33.81C112.739 33.8823 112.564 33.8475 112.416 33.7127C112.341 33.6434 112.275 33.5501 112.222 33.4382C112.17 33.3264 112.131 33.1983 112.109 33.0615C112.087 32.9247 112.082 32.782 112.094 32.6419C112.106 32.5019 112.136 32.3672 112.18 32.246C112.267 32.0063 112.409 31.8331 112.573 31.7644C112.738 31.6957 112.912 31.737 113.058 31.8793C113.204 32.0232 113.31 32.2541 113.354 32.5236C113.398 32.793 113.376 33.0801 113.294 33.3244Z" fill="#425AC2"/>
<path d="M98.1161 46.3324L97.4893 48.2759L104.589 54.4729L105.216 52.5295L98.1161 46.3324Z" fill="#425AC2"/>
<path d="M115.707 43.5882L105.12 53.1899L105.601 54.6254L116.188 45.0237L115.707 43.5882Z" fill="#425AC2"/>
<path d="M108.195 54.4405C108.21 55.441 108.045 56.4266 107.719 57.272C107.393 58.1173 106.922 58.7841 106.365 59.1878C105.808 59.5915 105.191 59.7138 104.592 59.5391C103.993 59.3644 103.439 58.9006 103.001 58.2067C102.562 57.5128 102.259 56.6201 102.13 55.642C102 54.664 102.051 53.6448 102.274 52.714C102.498 51.7832 102.885 50.9828 103.386 50.4146C103.887 49.8463 104.479 49.5359 105.087 49.5227C105.895 49.4996 106.676 50.0041 107.259 50.9258C107.841 51.8475 108.178 53.1113 108.195 54.4405Z" fill="#FE958E"/>
<path d="M97.0754 18.6572C96.9055 18.0497 96.699 17.4716 96.4592 16.9317C95.4003 14.4747 93.7914 12.8104 91.9865 12.3048C90.1817 11.7992 88.3286 12.4937 86.835 14.2355C85.3414 15.9774 84.3297 18.624 84.0223 21.593C83.715 24.562 84.1371 27.6102 85.196 30.0672C85.429 30.6035 85.6878 31.1084 85.9697 31.577L97.0754 18.6572Z" fill="#FE958E"/>
<path d="M3.61478 148.33C3.34549 148.513 3.05687 148.606 2.76562 148.604C2.47438 148.601 2.18628 148.504 1.91802 148.318C1.64976 148.131 1.40666 147.859 1.20276 147.517C0.998871 147.175 0.838242 146.769 0.730176 146.325V146.325C0.509747 145.429 0.514343 144.427 0.742981 143.537C0.971619 142.647 1.40559 141.943 1.94957 141.579L6.85342 138.279C7.39984 137.922 8.00978 137.932 8.5518 138.307C9.09383 138.682 9.52453 139.392 9.75113 140.285C9.97204 141.183 9.9678 142.189 9.7393 143.082C9.51081 143.976 9.07665 144.684 8.53173 145.052L3.61478 148.33Z" fill="#8EA8DD"/>
<path d="M28.0678 165.284C28.1773 165.729 28.3392 166.135 28.5443 166.477C28.7495 166.82 28.9937 167.092 29.263 167.278C29.5323 167.465 29.8214 167.562 30.1136 167.564C30.4058 167.566 30.6954 167.473 30.9656 167.29V167.29C31.5105 166.921 31.9447 166.213 32.1732 165.32C32.4016 164.427 32.4059 163.421 32.185 162.523L30.1789 154.456C29.9577 153.561 29.5297 152.847 28.9889 152.471C28.448 152.095 27.8385 152.088 27.2943 152.45V152.45C27.0233 152.63 26.7767 152.897 26.5686 153.234C26.3605 153.571 26.195 153.973 26.0817 154.416C25.9683 154.859 25.9094 155.335 25.9082 155.815C25.907 156.296 25.9637 156.772 26.0749 157.217L28.0678 165.284Z" fill="#8EA8DD"/>
<path d="M22.3634 86.0604C22.1363 84.1912 22.255 82.2528 22.7043 80.4956C24.3826 74.0249 30.4141 71.8681 36.1571 75.8368C41.9001 79.8055 45.2174 88.3899 43.539 94.9469C43.1201 96.562 42.4398 97.9571 41.5723 98.9803L40.4184 96.4135C40.9959 95.7268 41.4491 94.7949 41.7296 93.7174C43.0408 88.8644 40.0644 82.0055 35.3835 78.7701C30.7025 75.5348 25.6938 76.8936 24.4613 81.7466C24.1621 82.9335 24.0845 84.24 24.2384 85.4996L22.3634 86.0604Z" fill="#A4B8EA"/>
<path d="M42.761 97.5461L36.9021 104.163L42.0745 116.557L47.9334 109.94L42.761 97.5461Z" fill="#425AC2"/>
<path d="M39.2136 97.4697C39.5142 97.0197 39.839 96.6154 40.1839 96.2619C40.9976 95.4143 41.91 94.8559 42.8626 94.6225C43.8152 94.3892 44.787 94.486 45.7155 94.9067C46.644 95.3274 47.5088 96.0628 48.2544 97.0656C49 98.0685 49.6099 99.3167 50.0451 100.73C50.4802 102.143 50.7309 103.691 50.7811 105.273C50.8313 106.855 50.6798 108.437 50.3365 109.917C49.9932 111.398 49.4656 112.743 48.7875 113.868C48.1094 114.994 47.2958 115.873 46.3989 116.45L39.2136 97.4697Z" fill="#FFC1C1"/>
<path d="M22.0827 83.6852L13.0781 86.2544L14.2926 97.7728L23.2972 95.2036L22.0827 83.6852Z" fill="#425AC2"/>
<path d="M42.9238 139.377C41.3064 145.656 38.5943 151.006 35.13 154.752C31.6657 158.497 27.6044 160.471 23.459 160.422C19.3135 160.374 15.2696 158.306 11.8379 154.481C8.40614 150.655 5.74039 145.242 4.17715 138.926C2.6139 132.61 2.22324 125.674 3.05451 118.993C3.88577 112.312 5.90169 106.186 8.84775 101.388C11.7938 96.5901 15.5379 93.3357 19.6075 92.0354C23.677 90.7352 27.8895 91.4475 31.7131 94.0824C34.2609 95.838 36.5728 98.404 38.5161 101.633C40.4595 104.862 41.9961 108.691 43.0377 112.899C44.0793 117.108 44.6054 121.613 44.5859 126.157C44.5663 130.701 44.0015 135.193 42.9238 139.377Z" fill="#FFC1C1"/>
<path d="M30.1064 152.613C39.0472 146.658 43.3608 129.909 39.7413 115.201C36.1217 100.494 25.9395 93.3976 16.9988 99.3518C8.058 105.306 3.7443 122.056 7.36387 136.763C10.9834 151.471 21.1656 158.567 30.1064 152.613Z" fill="#FEE2E3"/>
<path d="M30.0607 103.316C30.028 103.444 29.9802 103.561 29.92 103.66C29.8598 103.758 29.7884 103.836 29.7098 103.889C29.6313 103.943 29.5472 103.97 29.4623 103.969C29.3774 103.969 29.2934 103.941 29.215 103.887C29.1367 103.833 29.0655 103.755 29.0057 103.656C28.9458 103.557 28.8984 103.439 28.8661 103.31C28.8339 103.181 28.8174 103.042 28.8176 102.903C28.8179 102.763 28.8348 102.625 28.8675 102.496C28.9367 102.237 29.0647 102.034 29.2241 101.929C29.3834 101.824 29.5614 101.826 29.7198 101.935C29.876 102.044 29.9994 102.251 30.0633 102.51C30.1272 102.768 30.1263 103.058 30.0607 103.316Z" fill="#425AC2"/>
<path d="M22.3111 101.008C22.3221 101.147 22.3162 101.288 22.2937 101.423C22.2712 101.558 22.2326 101.685 22.1801 101.795C22.1276 101.906 22.0624 101.998 21.9881 102.066C21.9137 102.135 21.8319 102.178 21.7473 102.194C21.5787 102.231 21.4081 102.156 21.2729 101.986C21.1377 101.817 21.0489 101.566 21.0261 101.288C21.0151 101.149 21.0211 101.008 21.0435 100.873C21.066 100.738 21.1046 100.611 21.1571 100.501C21.2095 100.391 21.2748 100.298 21.3492 100.23C21.4235 100.161 21.5053 100.118 21.5899 100.102C21.7586 100.065 21.9292 100.14 22.0643 100.31C22.1995 100.479 22.2883 100.731 22.3111 101.008Z" fill="#425AC2"/>
<path d="M14.8906 105.388C14.9443 105.497 14.984 105.622 15.0072 105.758C15.0305 105.893 15.0368 106.034 15.0257 106.173C15.0147 106.313 14.9866 106.447 14.943 106.567C14.8995 106.688 14.8415 106.793 14.7726 106.876C14.7048 106.96 14.6274 107.022 14.5451 107.056C14.4627 107.091 14.377 107.099 14.2928 107.079C14.2087 107.059 14.1278 107.011 14.0548 106.94C13.9819 106.868 13.9183 106.773 13.8679 106.66C13.8169 106.55 13.7798 106.425 13.7588 106.291C13.7378 106.157 13.7333 106.018 13.7455 105.881C13.7577 105.745 13.7864 105.613 13.83 105.495C13.8735 105.377 13.931 105.274 13.999 105.193C14.0642 105.106 14.1397 105.041 14.2208 105.003C14.3018 104.965 14.3868 104.954 14.4703 104.973C14.5539 104.991 14.6344 105.037 14.7066 105.108C14.7789 105.18 14.8415 105.275 14.8906 105.388V105.388Z" fill="#425AC2"/>
<path d="M9.80309 115.266C9.96016 115.38 10.0839 115.591 10.1476 115.853C10.2113 116.115 10.21 116.408 10.144 116.668C10.0775 116.925 9.95193 117.128 9.7947 117.233C9.63748 117.338 9.46137 117.337 9.30483 117.229C9.22638 117.177 9.15508 117.1 9.09518 117.002C9.03528 116.904 8.988 116.787 8.95619 116.658C8.92437 116.529 8.90866 116.391 8.90999 116.252C8.91132 116.113 8.92967 115.976 8.96393 115.849C8.99562 115.72 9.0425 115.602 9.10188 115.503C9.16126 115.404 9.23196 115.325 9.30993 115.271C9.38791 115.216 9.47161 115.188 9.55624 115.188C9.64087 115.187 9.72477 115.214 9.80309 115.266V115.266Z" fill="#425AC2"/>
<path d="M8.40092 128.011C8.4854 127.993 8.57121 128.003 8.65337 128.04C8.73554 128.077 8.81241 128.14 8.87951 128.227C8.94662 128.313 9.00263 128.42 9.04427 128.543C9.08592 128.665 9.11236 128.8 9.12208 128.939C9.13653 129.146 9.11348 129.355 9.0558 129.541C8.99812 129.726 8.90838 129.879 8.79789 129.981C8.68739 130.083 8.56107 130.129 8.43478 130.113C8.30848 130.097 8.18786 130.02 8.08807 129.892C7.98829 129.764 7.91379 129.59 7.87394 129.392C7.83409 129.194 7.83066 128.981 7.86409 128.78C7.89752 128.579 7.96633 128.399 8.06184 128.262C8.15736 128.125 8.27532 128.038 8.40092 128.011V128.011Z" fill="#425AC2"/>
<path d="M11.0615 140.221C11.128 140.127 11.2056 140.056 11.2894 140.013C11.3732 139.97 11.4616 139.955 11.5489 139.971C11.6362 139.986 11.7207 140.031 11.7971 140.102C11.8736 140.173 11.9404 140.269 11.9934 140.384C12.0463 140.499 12.0844 140.631 12.1052 140.772C12.126 140.912 12.129 141.058 12.1142 141.2C12.0994 141.343 12.067 141.479 12.0189 141.6C11.9709 141.72 11.9084 141.824 11.8351 141.904C11.6985 142.071 11.5277 142.144 11.3588 142.108C11.19 142.072 11.0363 141.929 10.9304 141.709C10.8791 141.598 10.8418 141.471 10.8206 141.335C10.7994 141.2 10.7947 141.059 10.8069 140.92C10.8191 140.782 10.8479 140.649 10.8916 140.529C10.9353 140.409 10.993 140.304 11.0615 140.221Z" fill="#425AC2"/>
<path d="M17.067 148.589C17.0985 148.46 17.1455 148.343 17.2051 148.244C17.2648 148.146 17.3359 148.068 17.4142 148.016C17.4925 147.963 17.5764 147.937 17.661 147.94C17.7455 147.942 17.8289 147.972 17.9062 148.028C18.0235 148.109 18.1237 148.245 18.1939 148.42C18.2641 148.595 18.3013 148.799 18.3006 149.009C18.2999 149.218 18.2615 149.422 18.1901 149.596C18.1188 149.769 18.0178 149.904 17.8999 149.982C17.782 150.061 17.6526 150.081 17.528 150.038C17.4034 149.996 17.2892 149.894 17.2 149.744C17.1108 149.595 17.0505 149.406 17.0268 149.2C17.0032 148.994 17.0171 148.782 17.067 148.589V148.589Z" fill="#425AC2"/>
<path d="M24.8165 150.897C24.802 150.69 24.8251 150.481 24.8828 150.295C24.9404 150.11 25.0302 149.956 25.1406 149.855C25.2511 149.753 25.3775 149.707 25.5038 149.723C25.63 149.739 25.7507 149.816 25.8505 149.944C25.9502 150.072 26.0247 150.246 26.0646 150.444C26.1044 150.642 26.1079 150.855 26.0744 151.056C26.041 151.257 25.9722 151.437 25.8767 151.574C25.7812 151.71 25.6632 151.798 25.5376 151.825C25.4531 151.843 25.3673 151.833 25.2852 151.796C25.203 151.759 25.1261 151.695 25.059 151.609C24.9919 151.523 24.9359 151.415 24.8943 151.293C24.8526 151.171 24.8262 151.036 24.8165 150.897V150.897Z" fill="#425AC2"/>
<path d="M32.225 146.584C32.1498 146.416 32.1064 146.216 32.1003 146.007C32.0943 145.799 32.1258 145.593 32.1909 145.414C32.2561 145.235 32.3519 145.092 32.4664 145.002C32.5808 144.913 32.7088 144.881 32.8342 144.911C32.9597 144.941 33.0769 145.031 33.1712 145.17C33.2656 145.309 33.3327 145.492 33.3643 145.693C33.3959 145.895 33.3905 146.108 33.3487 146.305C33.307 146.502 33.2308 146.674 33.1297 146.8C32.9915 146.965 32.8197 147.034 32.6507 146.994C32.4818 146.954 32.329 146.807 32.225 146.584Z" fill="#425AC2"/>
<path d="M37.3246 136.64C37.1683 136.531 37.0441 136.325 36.9781 136.068C36.912 135.81 36.9093 135.521 36.9706 135.26C37.0399 135.001 37.1671 134.797 37.3258 134.688C37.4845 134.58 37.6625 134.576 37.8228 134.678C37.9799 134.791 38.1036 135.002 38.1673 135.264C38.2311 135.526 38.2298 135.819 38.1637 136.08C38.1323 136.209 38.0853 136.326 38.0256 136.424C37.966 136.523 37.8949 136.601 37.8165 136.653C37.7382 136.705 37.6543 136.731 37.5698 136.729C37.4853 136.727 37.4019 136.697 37.3246 136.64V136.64Z" fill="#425AC2"/>
<path d="M38.728 123.894C38.6436 123.912 38.5577 123.902 38.4756 123.865C38.3934 123.828 38.3166 123.765 38.2494 123.679C38.1823 123.592 38.1263 123.485 38.0847 123.363C38.043 123.24 38.0166 123.106 38.0069 122.966C37.9924 122.76 38.0155 122.55 38.0732 122.365C38.1309 122.179 38.2206 122.026 38.3311 121.924C38.4416 121.822 38.5679 121.776 38.6942 121.792C38.8205 121.808 38.9411 121.885 39.0409 122.013C39.1407 122.142 39.2152 122.316 39.255 122.513C39.2949 122.711 39.2983 122.924 39.2649 123.125C39.2314 123.326 39.1626 123.506 39.0671 123.643C38.9716 123.78 38.8536 123.867 38.728 123.894Z" fill="#425AC2"/>
<path d="M36.0659 111.707C35.9286 111.876 35.7561 111.948 35.5864 111.907C35.4167 111.867 35.2638 111.717 35.1612 111.491C35.0586 111.265 35.0148 110.981 35.0394 110.702C35.064 110.423 35.155 110.172 35.2923 110.003C35.4297 109.834 35.6022 109.762 35.7718 109.802C35.9415 109.843 36.0945 109.993 36.1971 110.219C36.2996 110.445 36.3434 110.728 36.3189 111.007C36.2943 111.286 36.2033 111.538 36.0659 111.707V111.707Z" fill="#425AC2"/>
<path d="M18.9955 114.113L17.9592 115.503L23.0403 125.748L24.0766 124.357L18.9955 114.113Z" fill="#425AC2"/>
<path d="M35.8445 122.759L23.8223 124.848L23.9269 126.478L35.9492 124.389L35.8445 122.759Z" fill="#425AC2"/>
<path d="M26.4165 127.904C26.1938 128.841 25.806 129.647 25.3028 130.219C24.7997 130.79 24.2042 131.102 23.5928 131.113C22.9813 131.124 22.3819 130.834 21.8712 130.281C21.3606 129.727 20.9622 128.935 20.727 128.007C20.4918 127.078 20.4306 126.056 20.5513 125.069C20.672 124.083 20.9691 123.179 21.4044 122.473C21.8397 121.766 22.3933 121.29 22.9944 121.105C23.5954 120.92 24.2163 121.034 24.7775 121.434C25.507 121.953 26.0856 122.918 26.3913 124.125C26.697 125.331 26.7061 126.687 26.4165 127.904Z" fill="#FE958E"/>
<path d="M24.5795 87.8298C24.5659 87.1687 24.5132 86.5114 24.4222 85.8671C24.2276 84.4112 23.8606 83.0326 23.3422 81.81C22.8237 80.5874 22.1639 79.5448 21.4005 78.7416C20.6371 77.9385 19.7851 77.3905 18.8929 77.1291C18.0008 76.8676 17.0861 76.8978 16.201 77.2179C15.316 77.5379 14.4779 78.1417 13.7347 78.9945C12.9915 79.8474 12.3577 80.9327 11.8694 82.1885C11.3812 83.4443 11.0481 84.8459 10.8892 86.3135C10.7303 87.781 10.7486 89.2857 10.9432 90.7416C11.0257 91.4003 11.1487 92.0435 11.3103 92.6613L24.5795 87.8298Z" fill="#FFC1C1"/>
<path d="M205.039 148.33C205.31 148.513 205.599 148.606 205.891 148.605C206.184 148.603 206.473 148.506 206.742 148.319C207.011 148.133 207.256 147.861 207.461 147.518C207.666 147.176 207.828 146.77 207.937 146.325V146.325C208.158 145.429 208.153 144.427 207.924 143.537C207.696 142.647 207.262 141.943 206.718 141.579L201.814 138.279C201.268 137.916 200.656 137.923 200.113 138.299C199.57 138.675 199.14 139.389 198.916 140.285V140.285C198.805 140.73 198.748 141.206 198.75 141.687C198.751 142.167 198.81 142.643 198.923 143.086C199.036 143.529 199.202 143.931 199.41 144.268C199.618 144.606 199.865 144.872 200.136 145.052L205.039 148.33Z" fill="#8EA8DD"/>
<path d="M180.598 165.285C180.375 166.181 179.944 166.895 179.401 167.271C178.858 167.647 178.247 167.654 177.701 167.291V167.291C177.43 167.111 177.183 166.844 176.975 166.507C176.767 166.169 176.602 165.768 176.488 165.325C176.375 164.882 176.316 164.406 176.315 163.925C176.314 163.445 176.37 162.968 176.481 162.524L178.474 154.457C178.698 153.561 179.129 152.847 179.672 152.471C180.215 152.095 180.826 152.088 181.372 152.451V152.451C181.643 152.631 181.89 152.898 182.098 153.235C182.306 153.572 182.471 153.974 182.585 154.417C182.698 154.86 182.757 155.336 182.758 155.816C182.759 156.297 182.703 156.773 182.591 157.218L180.598 165.285Z" fill="#8EA8DD"/>
<path d="M186.302 86.0604C186.522 84.1907 186.404 82.2553 185.961 80.4956C184.282 74.0249 178.251 71.8681 172.495 75.8368C166.739 79.8055 163.448 88.3899 165.126 94.9469C165.545 96.562 166.225 97.9571 167.093 98.9803L168.234 96.4135C167.656 95.7268 167.203 94.7949 166.922 93.7174C165.677 88.8644 168.588 82.0055 173.268 78.7701C177.949 75.5348 182.945 76.8936 184.191 81.7466C184.49 82.9335 184.567 84.24 184.414 85.4996L186.302 86.0604Z" fill="#A4B8EA"/>
<path d="M165.886 97.5015L160.713 109.896L166.572 116.512L171.745 104.118L165.886 97.5015Z" fill="#FE958E"/>
<path d="M169.453 97.4697C169.149 97.0247 168.825 96.6208 168.482 96.2619C167.669 95.4143 166.756 94.8559 165.804 94.6225C164.851 94.3892 163.879 94.486 162.951 94.9067C162.022 95.3274 161.157 96.0628 160.412 97.0656C159.666 98.0685 159.056 99.3167 158.621 100.73C158.186 102.143 157.935 103.691 157.885 105.273C157.835 106.855 157.986 108.437 158.33 109.917C158.673 111.398 159.201 112.743 159.879 113.868C160.557 114.994 161.37 115.873 162.267 116.45L169.453 97.4697Z" fill="#425AC2"/>
<path d="M187.767 79.469L186.559 91.0425L195.606 93.5982L196.814 82.0247L187.767 79.469Z" fill="#FE958E"/>
<path d="M192.953 158.033C203.711 150.894 208.914 130.759 204.574 113.062C200.234 95.3643 187.994 86.8054 177.236 93.9449C166.477 101.084 161.274 121.219 165.614 138.916C169.954 156.614 182.194 165.173 192.953 158.033Z" fill="#425AC2"/>
<path d="M169.008 137.114C170.35 142.349 172.606 146.812 175.49 149.939C178.374 153.066 181.757 154.715 185.211 154.679C188.665 154.644 192.035 152.924 194.895 149.737C197.755 146.551 199.976 142.041 201.278 136.778C202.58 131.515 202.904 125.735 202.209 120.169C201.513 114.603 199.831 109.502 197.373 105.509C194.916 101.516 191.793 98.8119 188.402 97.738C185.01 96.6641 181.5 97.2689 178.318 99.4757C176.204 100.941 174.286 103.077 172.674 105.762C171.063 108.447 169.788 111.627 168.924 115.123C168.059 118.618 167.622 122.359 167.636 126.132C167.651 129.905 168.117 133.637 169.008 137.114V137.114Z" fill="#FEE2E3"/>
<path d="M178.605 103.317C178.672 103.574 178.797 103.778 178.953 103.887C179.11 103.995 179.286 104 179.444 103.899C179.523 103.845 179.594 103.766 179.654 103.667C179.714 103.568 179.761 103.451 179.793 103.322C179.826 103.192 179.842 103.054 179.842 102.914C179.842 102.775 179.825 102.637 179.792 102.508C179.759 102.379 179.711 102.262 179.651 102.163C179.591 102.065 179.52 101.987 179.441 101.934C179.362 101.881 179.278 101.854 179.193 101.854C179.109 101.854 179.024 101.882 178.946 101.936C178.79 102.045 178.667 102.252 178.603 102.511C178.539 102.769 178.54 103.059 178.605 103.317Z" fill="#425AC2"/>
<path d="M186.38 101.009C186.369 101.148 186.375 101.289 186.398 101.424C186.42 101.559 186.459 101.686 186.511 101.796C186.564 101.907 186.629 101.999 186.703 102.067C186.778 102.136 186.86 102.179 186.944 102.195C187.03 102.22 187.117 102.215 187.202 102.183C187.286 102.15 187.366 102.089 187.435 102.005C187.505 101.92 187.564 101.813 187.608 101.69C187.652 101.567 187.68 101.431 187.692 101.289C187.703 101.15 187.697 101.009 187.674 100.874C187.652 100.739 187.613 100.612 187.561 100.502C187.508 100.392 187.443 100.299 187.369 100.231C187.294 100.162 187.212 100.119 187.128 100.103C187.042 100.075 186.954 100.077 186.869 100.109C186.783 100.14 186.703 100.2 186.633 100.285C186.563 100.371 186.504 100.479 186.46 100.603C186.417 100.728 186.39 100.866 186.38 101.009Z" fill="#425AC2"/>
<path d="M193.763 105.386C193.66 105.612 193.616 105.896 193.641 106.175C193.665 106.454 193.756 106.706 193.894 106.874C194.031 107.043 194.203 107.115 194.373 107.075C194.543 107.034 194.696 106.885 194.798 106.659C194.901 106.433 194.945 106.149 194.92 105.87C194.896 105.591 194.805 105.339 194.667 105.17C194.599 105.087 194.522 105.026 194.44 104.992C194.357 104.957 194.272 104.95 194.188 104.97C194.018 105.01 193.865 105.16 193.763 105.386V105.386Z" fill="#425AC2"/>
<path d="M198.862 115.266C198.704 115.375 198.579 115.583 198.514 115.844C198.448 116.104 198.449 116.397 198.515 116.657C198.581 116.918 198.707 117.124 198.866 117.231C199.025 117.339 199.202 117.338 199.361 117.229C199.439 117.177 199.51 117.1 199.57 117.002C199.63 116.904 199.678 116.787 199.709 116.658C199.741 116.529 199.757 116.391 199.756 116.252C199.754 116.113 199.736 115.976 199.702 115.849C199.67 115.72 199.623 115.602 199.564 115.503C199.504 115.404 199.434 115.325 199.356 115.271C199.278 115.216 199.194 115.188 199.109 115.188C199.025 115.187 198.941 115.214 198.862 115.266Z" fill="#425AC2"/>
<path d="M200.266 128.011C200.181 127.993 200.095 128.003 200.013 128.04C199.931 128.077 199.854 128.14 199.787 128.227C199.72 128.313 199.664 128.42 199.622 128.543C199.581 128.665 199.554 128.8 199.544 128.939C199.526 129.218 199.574 129.499 199.68 129.721C199.785 129.942 199.939 130.087 200.108 130.125C200.277 130.155 200.446 130.075 200.578 129.901C200.711 129.727 200.797 129.475 200.816 129.198C200.839 128.92 200.793 128.64 200.69 128.417C200.587 128.195 200.434 128.049 200.266 128.011V128.011Z" fill="#425AC2"/>
<path d="M197.604 140.221C197.537 140.127 197.46 140.056 197.376 140.013C197.292 139.97 197.204 139.955 197.117 139.971C197.029 139.986 196.945 140.031 196.868 140.102C196.792 140.173 196.725 140.269 196.672 140.384C196.619 140.499 196.581 140.631 196.56 140.772C196.539 140.912 196.536 141.058 196.551 141.2C196.566 141.343 196.598 141.479 196.646 141.6C196.694 141.72 196.757 141.824 196.83 141.904C196.967 142.071 197.138 142.144 197.307 142.108C197.475 142.072 197.629 141.929 197.735 141.709C197.786 141.598 197.824 141.471 197.845 141.335C197.866 141.2 197.871 141.059 197.858 140.92C197.846 140.782 197.818 140.649 197.774 140.529C197.73 140.409 197.672 140.304 197.604 140.221Z" fill="#425AC2"/>
<path d="M191.626 148.59C191.557 148.331 191.429 148.128 191.269 148.023C191.11 147.918 190.932 147.92 190.774 148.029C190.617 148.138 190.494 148.345 190.43 148.603C190.366 148.862 190.367 149.152 190.433 149.409C190.502 149.668 190.63 149.871 190.789 149.976C190.949 150.081 191.126 150.079 191.285 149.97C191.441 149.861 191.564 149.654 191.628 149.395C191.692 149.137 191.691 148.847 191.626 148.59V148.59Z" fill="#425AC2"/>
<path d="M183.851 150.897C183.865 150.69 183.842 150.481 183.784 150.295C183.727 150.11 183.637 149.956 183.526 149.855C183.416 149.753 183.29 149.707 183.163 149.723C183.037 149.739 182.916 149.816 182.817 149.944C182.717 150.072 182.642 150.246 182.602 150.444C182.563 150.642 182.559 150.855 182.593 151.056C182.626 151.257 182.695 151.437 182.79 151.574C182.886 151.71 183.004 151.798 183.129 151.825C183.299 151.855 183.47 151.775 183.605 151.602C183.739 151.429 183.828 151.176 183.851 150.897Z" fill="#425AC2"/>
<path d="M176.429 146.582C176.481 146.472 176.519 146.346 176.541 146.211C176.563 146.076 176.569 145.936 176.558 145.797C176.547 145.659 176.52 145.526 176.477 145.405C176.435 145.284 176.378 145.178 176.311 145.094C176.243 145.01 176.165 144.949 176.083 144.915C176.001 144.881 175.915 144.873 175.831 144.893C175.661 144.934 175.508 145.083 175.406 145.309C175.303 145.535 175.259 145.819 175.284 146.098C175.309 146.377 175.4 146.629 175.537 146.798C175.604 146.881 175.68 146.942 175.761 146.977C175.843 147.012 175.927 147.019 176.01 146.999C176.093 146.979 176.173 146.932 176.245 146.86C176.317 146.788 176.379 146.694 176.429 146.582Z" fill="#425AC2"/>
<path d="M171.341 136.641C171.42 136.589 171.491 136.512 171.551 136.414C171.611 136.316 171.658 136.199 171.69 136.07C171.722 135.941 171.737 135.803 171.736 135.664C171.735 135.525 171.716 135.388 171.682 135.261C171.654 135.122 171.609 134.995 171.55 134.886C171.49 134.778 171.418 134.691 171.337 134.631C171.257 134.571 171.169 134.539 171.081 134.537C170.992 134.535 170.904 134.563 170.822 134.62C170.741 134.677 170.667 134.76 170.606 134.866C170.545 134.972 170.498 135.098 170.468 135.235C170.438 135.372 170.425 135.518 170.431 135.663C170.437 135.809 170.461 135.951 170.502 136.08C170.533 136.209 170.58 136.327 170.64 136.425C170.7 136.524 170.771 136.601 170.849 136.654C170.927 136.706 171.011 136.732 171.096 136.73C171.18 136.728 171.264 136.697 171.341 136.641V136.641Z" fill="#425AC2"/>
<path d="M169.939 123.894C170.023 123.912 170.109 123.902 170.191 123.865C170.273 123.828 170.35 123.764 170.417 123.678C170.484 123.592 170.54 123.484 170.582 123.362C170.624 123.24 170.65 123.105 170.66 122.966C170.67 122.824 170.663 122.681 170.64 122.544C170.617 122.406 170.577 122.278 170.523 122.166C170.47 122.053 170.403 121.96 170.328 121.89C170.252 121.82 170.169 121.775 170.083 121.758C169.997 121.741 169.909 121.752 169.826 121.791C169.742 121.829 169.664 121.894 169.596 121.983C169.528 122.071 169.471 122.18 169.429 122.304C169.386 122.429 169.359 122.566 169.349 122.707C169.338 122.85 169.344 122.994 169.369 123.132C169.393 123.27 169.434 123.398 169.489 123.509C169.544 123.62 169.612 123.711 169.69 123.777C169.767 123.843 169.852 123.883 169.939 123.894Z" fill="#425AC2"/>
<path d="M172.6 111.707C172.702 111.831 172.824 111.902 172.951 111.912C173.077 111.922 173.203 111.87 173.311 111.763C173.42 111.656 173.507 111.498 173.562 111.31C173.616 111.121 173.635 110.911 173.617 110.705C173.599 110.498 173.544 110.305 173.459 110.15C173.375 109.995 173.264 109.885 173.141 109.833C173.019 109.781 172.889 109.79 172.77 109.858C172.65 109.927 172.545 110.052 172.469 110.219C172.369 110.446 172.326 110.729 172.351 111.007C172.375 111.284 172.465 111.536 172.6 111.707V111.707Z" fill="#425AC2"/>
<path d="M189.642 114.004L184.561 124.249L185.597 125.639L190.678 115.395L189.642 114.004Z" fill="#425AC2"/>
<path d="M172.783 122.695L172.678 124.325L184.7 126.414L184.805 124.784L172.783 122.695Z" fill="#425AC2"/>
<path d="M182.277 127.904C182.5 128.841 182.888 129.647 183.391 130.219C183.894 130.79 184.49 131.102 185.101 131.113C185.712 131.124 186.312 130.834 186.822 130.281C187.333 129.727 187.732 128.935 187.967 128.007C188.202 127.078 188.263 126.056 188.142 125.069C188.022 124.083 187.725 123.179 187.289 122.473C186.854 121.766 186.3 121.29 185.699 121.105C185.098 120.92 184.477 121.034 183.916 121.434C183.187 121.953 182.608 122.918 182.302 124.125C181.997 125.331 181.988 126.687 182.277 127.904Z" fill="#FE958E"/>
<path d="M184.086 87.8299C184.1 87.1688 184.152 86.5114 184.243 85.8671C184.636 82.9268 185.723 80.3637 187.265 78.7417C188.807 77.1196 190.677 76.5715 192.464 77.2179C194.252 77.8643 195.81 79.6523 196.796 82.1885C197.782 84.7247 198.115 87.8013 197.722 90.7417C197.634 91.3977 197.511 92.04 197.355 92.6613L184.086 87.8299Z" fill="#425AC2"/>
<path d="M124.151 300.347H83.2817L84.37 443.975H92.1716C92.1716 443.975 98.0851 371.719 100.301 331.816H105.716L107.342 443.975H115.209C115.209 443.975 124.387 331.32 124.165 309.6C124.263 306.518 124.259 303.429 124.151 300.347V300.347Z" fill="#A4B8EA"/>
<path d="M124.152 300.349H83.2825L78.1689 211.032C77.7231 203.763 81.9976 197.508 87.439 197.508H119.983C125.424 197.508 129.712 203.763 129.253 211.032L124.152 300.349Z" fill="#0E24A5"/>
<path d="M101.769 213.944C101.889 214.452 102.097 214.892 102.366 215.209C102.636 215.527 102.956 215.708 103.287 215.731C103.618 215.754 103.946 215.617 104.231 215.338C104.515 215.059 104.745 214.65 104.89 214.16C106.713 208.034 110.712 198.867 110.712 196.904V183.726C110.712 180.728 107.998 180.987 106.398 180.987H101.153C99.5535 180.987 96.8394 183.402 96.8394 186.4V196.904C96.8918 198.846 100.327 207.818 101.769 213.944Z" fill="#E98896"/>
<path d="M97.9942 189.16C103.396 197.356 108.143 194.703 111.867 184.285C116.285 171.905 117.793 158.402 112.391 150.292C111.202 148.344 109.781 146.821 108.217 145.817C106.654 144.813 104.981 144.35 103.304 144.457C101.627 144.564 99.9809 145.239 98.4695 146.44C96.9581 147.641 95.6134 149.341 94.5195 151.436C89.5501 160.322 92.5921 181.093 97.9942 189.16Z" fill="#FFA6AD"/>
<path d="M95.1871 220.868L65.9476 240.668C64.6085 241.571 63.1356 241.792 61.7193 241.304C60.3029 240.815 59.008 239.64 58.0018 237.929L31.7781 193.497L36.8655 184.006L62.355 215.864C62.355 215.864 77.6696 200.765 83.806 198.112C86.5463 196.948 93.3514 209.07 93.3514 209.07L95.1871 220.868Z" fill="#0E24A5"/>
<path d="M84.2517 443.781H92.1976V453.789H76.0962C75.0341 453.789 74.667 449.864 75.5979 449.022L84.2517 443.781Z" fill="#112256"/>
<path d="M115.314 443.781H107.381V453.789H123.443C124.505 453.789 124.872 449.864 123.941 449.022L115.314 443.781Z" fill="#112256"/>
<mask id="mask0_2_12165" style="mask-type:alpha" maskUnits="userSpaceOnUse" x="83" y="300" width="42" height="144">
<path d="M124.152 300.349H83.282L84.3703 443.977H92.1718C92.1718 443.977 98.0853 371.721 100.301 331.818H105.716L107.342 443.977H115.209C115.209 443.977 124.388 331.322 124.165 309.602C124.264 306.52 124.259 303.431 124.152 300.349V300.349Z" fill="#A4B8EA"/>
</mask>
<g mask="url(#mask0_2_12165)">
<path d="M88.0282 284.949H86.3499V459.356H88.0282V284.949Z" fill="#03053F"/>
<path d="M92.6434 284.949H90.9651V459.356H92.6434V284.949Z" fill="#03053F"/>
<path d="M97.2591 284.949H95.5808V459.356H97.2591V284.949Z" fill="#03053F"/>
<path d="M101.887 284.949H100.209V459.356H101.887V284.949Z" fill="#03053F"/>
<path d="M106.503 284.949H104.824V459.356H106.503V284.949Z" fill="#03053F"/>
<path d="M111.118 284.949H109.44V459.356H111.118V284.949Z" fill="#03053F"/>
<path d="M115.747 284.949H114.068V459.356H115.747V284.949Z" fill="#03053F"/>
<path d="M120.362 284.949H118.684V459.356H120.362V284.949Z" fill="#03053F"/>
</g>
<path d="M124.178 300.347H83.269V305.114H124.178V300.347Z" fill="#FFC1C1"/>
<path d="M36.9053 184.004C36.9053 184.004 38.3082 173.219 36.7217 173.219C35.1352 173.219 34.6107 179.582 33.9289 179.927C32.4079 180.703 30.3624 177.145 28.081 173.974C25.7995 170.803 22.0364 171.278 22.1937 174.556C22.4822 180.898 31.8179 193.559 31.8179 193.559L36.9053 184.004Z" fill="#E98896"/>
<path d="M111.852 220.868L141.092 240.668C142.431 241.571 143.903 241.792 145.32 241.304C146.736 240.815 148.031 239.64 149.037 237.929L175.261 193.497L170.174 184.006L144.684 215.864C144.684 215.864 129.37 200.765 123.246 198.112C120.493 196.948 113.701 209.07 113.701 209.07L111.852 220.868Z" fill="#0E24A5"/>
<path d="M170.134 184.004C170.134 184.004 168.744 173.219 170.318 173.219C171.891 173.219 172.429 179.582 173.124 179.927C174.632 180.703 176.677 177.145 178.959 173.974C181.24 170.803 185.003 171.278 184.859 174.556C184.557 180.898 175.222 193.559 175.222 193.559L170.134 184.004Z" fill="#E98896"/>
<path d="M50.8826 298.623C50.8826 300.329 51.1901 301.997 51.7664 303.416C52.3427 304.835 53.1619 305.941 54.1202 306.594C55.0786 307.247 56.1331 307.417 57.1505 307.085C58.1679 306.752 59.1024 305.93 59.8359 304.723C60.5694 303.517 61.0689 301.979 61.2713 300.306C61.4736 298.632 61.3698 296.898 60.9728 295.321C60.5759 293.745 59.9036 292.397 59.0412 291.449C58.1787 290.501 57.1646 289.995 56.1273 289.995C54.7363 289.995 53.4023 290.904 52.4187 292.522C51.4351 294.14 50.8826 296.335 50.8826 298.623V298.623ZM52.7707 298.623C52.7681 297.513 52.9658 296.426 53.3388 295.501C53.7118 294.576 54.2434 293.854 54.8661 293.426C55.4888 292.999 56.1746 292.884 56.8368 293.098C57.4989 293.312 58.1076 293.845 58.5857 294.628C59.0638 295.412 59.3898 296.411 59.5224 297.499C59.655 298.588 59.5882 299.716 59.3306 300.742C59.0729 301.768 58.636 302.645 58.0751 303.262C57.5142 303.88 56.8546 304.209 56.1798 304.209C55.2779 304.209 54.4127 303.621 53.7738 302.574C53.1348 301.527 52.7741 300.106 52.7707 298.623V298.623Z" fill="#FE958E"/>
<path d="M57.4256 282.251H39.895L43.2385 313.828H54.0821L57.4256 282.251Z" fill="#FE958E"/>
<path d="M139.833 307.422H178.133L183.377 268.426H145.091L139.833 307.422Z" fill="#BBBBBB"/>
<path d="M178.16 307.164H130.459V313.807H178.16V307.164Z" fill="#BBBBBB"/>
<path d="M159.842 288.939C159.842 289.758 159.99 290.558 160.267 291.239C160.543 291.92 160.936 292.451 161.396 292.765C161.856 293.078 162.363 293.16 162.851 293C163.339 292.841 163.788 292.446 164.14 291.867C164.492 291.288 164.732 290.55 164.829 289.747C164.926 288.943 164.876 288.111 164.686 287.354C164.495 286.597 164.172 285.95 163.758 285.495C163.344 285.04 162.858 284.797 162.36 284.797C162.029 284.797 161.702 284.905 161.396 285.113C161.091 285.321 160.813 285.626 160.58 286.01C160.346 286.395 160.16 286.851 160.034 287.354C159.907 287.856 159.842 288.395 159.842 288.939V288.939Z" fill="#4E687F"/>
<path d="M97.9942 189.16C103.396 197.356 108.143 194.703 111.867 184.285C116.285 171.905 117.793 158.402 112.391 150.292C111.202 148.344 109.781 146.821 108.217 145.817C106.654 144.813 104.981 144.35 103.304 144.457C101.627 144.564 99.9809 145.239 98.4695 146.44C96.9581 147.641 95.6134 149.341 94.5195 151.436C89.5501 160.322 92.5921 181.093 97.9942 189.16Z" fill="#E98896"/>
<path d="M92.3294 181.546C91.2804 176.93 91.5164 166.901 94.7026 167.871C97.0627 168.583 94.8731 173.911 96.971 174.493C99.0689 175.075 94.7813 158.51 100.131 154.326C105.218 150.336 110.62 152.73 110.988 162.954C111.302 172.164 109.231 175.615 110.988 175.615C112.745 175.615 110.988 169.273 114.134 169.856C117.281 170.438 117.294 183.121 119.038 183.121C120.782 183.121 119.746 142.787 119.746 142.787L94.5191 135.798L87.8713 158.856L92.3294 181.546Z" fill="#425AC2"/>
</svg>
